<svg width="230" height="230" viewBox="0 0 230 230" fill="none" xmlns="http://www.w3.org/2000/svg">
<rect x="68.7122" y="115.829" width="65.4301" height="65.4301" transform="rotate(-45 68.7122 115.829)" fill="#f7a94a"/>
<rect x="161.244" y="115.833" width="65.4301" height="47.7594" transform="rotate(-135 161.244 115.833)" fill="#f7a94a"/>
<rect x="82.2143" y="194.94" width="65.4301" height="47.7594" transform="rotate(-135 82.2143 194.94)" fill="#f7a94a"/>
<rect x="115.947" y="69.6052" width="65.4301" height="47.7594" transform="rotate(135 115.947 69.6052)" fill="#f7a94a"/>
<rect x="195.054" y="148.635" width="65.4301" height="47.7594" transform="rotate(135 195.054 148.635)" fill="#f7a94a"/>
<path d="M27.4433 27.3292L82.2597 35.9016L36.0158 82.1455L27.4433 27.3292Z" fill="#f7a94a"/>
<path d="M27.4433 203.187L82.2597 194.614L36.0158 148.371L27.4433 203.187Z" fill="#f7a94a"/>
<path d="M203.301 27.3292L148.485 35.9016L194.729 82.1455L203.301 27.3292Z" fill="#f7a94a"/>
<path d="M203.301 203.187L148.485 194.614L194.729 148.371L203.301 203.187Z" fill="#f7a94a"/>
</svg>
