<svg width="323" height="30" viewBox="0 0 323 30" fill="none" xmlns="http://www.w3.org/2000/svg">
<path d="M2 22V20H0V18H4V20H10V16H2V14H0V10H2V8H12V10H14V12H10V10H4V14H12V16H14V20H12V22H2ZM16.16 22V8H30.16V10H20.16V14H28.16V16H20.16V20H30.16V22H16.16ZM32.32 22V8H36.32V10H38.32V12H40.32V14H42.32V8H46.32V22H42.32V18H40.32V16H38.32V14H36.32V22H32.32ZM48.48 22V12H50.48V10H52.48V8H58.48V10H60.48V12H62.48V22H58.48V18H52.48V22H48.48ZM52.48 16H58.48V12H56.48V10H54.48V12H52.48V16ZM68.64 22V20H66.64V18H64.64V12H66.64V10H68.64V8H76.64V10H78.64V12H74.64V10H70.64V12H68.64V18H70.64V20H74.64V18H78.64V20H76.64V22H68.64ZM96.96 22V8H100.96V14H106.96V8H110.96V22H106.96V16H100.96V22H96.96ZM115.12 22V20H113.12V8H117.12V20H123.12V8H127.12V20H125.12V22H115.12ZM129.28 22V8H141.28V10H143.28V14H141.28V16H143.28V20H141.28V22H129.28ZM133.28 14H139.28V10H133.28V14ZM133.28 20H139.28V16H133.28V20ZM161.6 22V12H163.6V10H165.6V8H171.6V10H173.6V12H175.6V22H171.6V18H165.6V22H161.6ZM165.6 16H171.6V12H169.6V10H167.6V12H165.6V16ZM181.76 22V20H179.76V18H177.76V12H179.76V10H181.76V8H189.76V10H191.76V12H187.76V10H183.76V12H181.76V18H183.76V20H187.76V18H191.76V20H189.76V22H181.76ZM193.92 22V12H195.92V10H197.92V8H203.92V10H205.92V12H207.92V22H203.92V18H197.92V22H193.92ZM197.92 16H203.92V12H201.92V10H199.92V12H197.92V16ZM210.08 22V8H220.08V10H222.08V12H224.08V18H222.08V20H220.08V22H210.08ZM214.08 20H218.08V18H220.08V12H218.08V10H214.08V20ZM226.24 22V8H240.24V10H230.24V14H238.24V16H230.24V20H240.24V22H226.24ZM242.4 22V8H246.4V10H248.4V12H250.4V10H252.4V8H256.4V22H252.4V14H250.4V18H248.4V14H246.4V22H242.4ZM264.56 22V16H262.56V14H260.56V8H264.56V14H268.56V8H272.56V14H270.56V16H268.56V22H264.56Z" fill="white"/>
<rect x="305" width="6" height="6" fill="white"/>
<rect x="317" width="6" height="6" fill="white"/>
<rect x="293" width="6" height="6" fill="white"/>
<rect x="293" y="12" width="6" height="6" fill="white"/>
<rect x="293" y="24" width="6" height="6" fill="white"/>
<rect x="305" y="24" width="6" height="6" fill="white"/>
<rect x="317" y="24" width="6" height="6" fill="white"/>
<rect x="299" y="6" width="18" height="18" fill="white"/>
<rect x="317" y="12" width="6" height="6" fill="white"/>
</svg>
